# xmcd CD database file
#
# Track frame offsets:
#	150
#	113788
#	156037
#	229404
#
# Disc length: 3656 seconds
#
# Revision: 2
# Processed by: cddbd v1.4b41PL1 Copyright (c) Steve Scherf et al.
# Submitted via: Feurio! 1.60 - http://www.feurio.com
#
DISCID=290e4604,2a0e4604
DTITLE=String Cheese Incident - SCI Live, Perioa, IL 4-8-2000
DYEAR=1900
DGENRE=
TTITLE0=Rivertrance
TTITLE1=Black and White
TTITLE2=Rocky Way
TTITLE3=Johnny Cash
EXTD=
EXTT0=
EXTT1=
EXTT2=
EXTT3=
PLAYORDER=
